<svg width="53" height="63" viewBox="0 0 53 63" fill="none" xmlns="http://www.w3.org/2000/svg">
<path fill-rule="evenodd" clip-rule="evenodd" d="M34.4977 7.20224C33.222 7.00753 29.0197 6.33562 25.1592 5.70917C19.7125 4.82545 18.1879 4.61827 18.3535 4.78453C18.4709 4.90242 21.3404 7.67351 24.7302 10.9424L30.8932 16.886L40.0383 18.3094C45.0679 19.0922 49.4032 19.7613 49.6719 19.7964C50.146 19.8581 50.0715 19.7757 47.197 17.0551C45.5669 15.5125 42.7797 12.863 41.0032 11.1674C39.2267 9.47177 37.558 7.96563 37.2951 7.82033C36.9605 7.63552 36.1214 7.45006 34.4977 7.20224ZM46.1399 19.5264L45.7956 19.4859L43.9018 22.2001C42.1021 24.7794 41.9945 24.9113 41.7366 24.8528C41.5874 24.8189 41.2853 24.8662 41.0654 24.958C40.5422 25.1764 40.3868 25.6311 40.6884 26.0607L40.92 26.3908L39.6319 27.4648L38.3437 28.539L39.5765 29.1279C40.2546 29.4519 40.8271 29.6914 40.8488 29.6603C40.8705 29.6292 41.0871 28.992 41.3302 28.2442L41.7723 26.8848L42.3367 26.8018C42.7086 26.7471 42.967 26.6245 43.094 26.4426C43.344 26.0843 43.2845 25.5562 42.9775 25.4095C42.7444 25.2982 42.8032 25.1983 44.7079 22.4686C45.7923 20.9145 46.6356 19.6259 46.5818 19.6049C46.528 19.584 46.3293 19.5488 46.1399 19.5264ZM20.7973 12.3622C19.0612 14.8503 18.8792 15.1508 19.0918 15.1787C19.7397 15.2637 22.2337 16.0355 24.0377 16.7093C26.7253 17.713 32.1018 20.2815 34.4962 21.7055C36.1034 22.6613 38.1582 24.0626 38.5711 24.4843C38.7066 24.6228 38.9301 24.3421 40.6662 21.854C41.7803 20.2573 42.5616 19.0457 42.4971 19.015C42.4352 18.9853 39.8067 18.562 36.6562 18.0741C33.5056 17.5863 30.8431 17.1466 30.7394 17.0971C30.6357 17.0476 28.8443 15.3595 26.7585 13.3458C24.6726 11.3321 22.9152 9.66025 22.8533 9.63065C22.7888 9.59986 21.9114 10.7655 20.7973 12.3622Z" fill="#CBCBCB"/>
<path fill-rule="evenodd" clip-rule="evenodd" d="M13.8151 19.1553C12.4521 19.4543 10.048 20.1763 9.88928 20.3344C9.84985 20.3735 9.39816 20.5877 8.88554 20.81C8.37291 21.0324 7.84853 21.2993 7.72019 21.4033C7.59186 21.5072 7.3055 21.6989 7.08411 21.8295C6.07721 22.4227 5.81108 22.6265 4.55884 23.7634C3.16206 25.0315 1.85233 26.8162 1.10196 28.4737C-0.424445 31.8456 -0.361784 35.7971 1.26929 39.0333C1.55292 39.596 2.36466 40.9465 2.51738 41.1097C2.6589 41.261 6.46609 46.718 7.56662 48.3472C7.76508 48.6408 8.07839 49.0803 8.26307 49.3237C8.44776 49.5671 8.59875 49.795 8.59875 49.8303C8.59875 49.8655 8.75964 50.1052 8.95623 50.3629C9.15282 50.6206 9.80625 51.5406 10.4082 52.4072C11.0103 53.2739 11.6332 54.1698 11.7927 54.3982C11.952 54.6266 12.2776 55.1071 12.5162 55.466C13.4513 56.8726 15.6718 60.0507 15.9279 60.3489C15.9932 60.5092 16.1383 60.7049 16.1383 60.7613C16.1383 60.8176 16.3592 61.0644 16.5557 61.3036C16.752 61.5428 17.1023 62.0224 17.3339 62.3693C17.5656 62.7162 17.8324 63.0001 17.9269 63.0001C18.0868 63.0001 18.8616 62.0014 19.4456 61.0425C19.5847 60.8141 20.0448 60.1518 20.4683 59.5708C20.8916 58.9896 21.4161 58.2421 21.6339 57.9097C22.185 57.0682 22.662 56.3776 22.7892 56.2372C22.8483 56.172 23.09 55.8249 23.3266 55.466C23.5631 55.1071 23.8907 54.6266 24.0546 54.3982C24.2184 54.1698 24.7365 53.4223 25.2056 52.7371C25.675 52.0519 26.492 50.8773 27.0216 50.1269C27.551 49.3764 28.2137 48.4154 28.4943 47.9912C28.7749 47.5671 29.1133 47.0865 29.2466 46.9234C29.3796 46.7603 29.5867 46.4666 29.7064 46.2708C29.8263 46.0751 30.6914 44.8335 31.629 43.5119C34.2232 39.8552 34.6289 39.1588 35.187 37.4017C35.724 35.7117 35.8972 34.4213 35.7993 32.8422C35.7074 31.3614 35.6716 31.1503 35.3223 30.0161C34.9092 28.6749 33.9039 26.7436 33.0374 25.6262C32.1604 24.4953 29.393 22.0074 29.012 22.0074C28.9398 22.0074 28.7741 21.9139 28.6439 21.7998C28.2857 21.4859 28.0145 21.3154 27.4213 21.0311C27.1242 20.8887 26.8489 20.7424 26.8095 20.706C26.6691 20.5763 25.002 19.9413 24.085 19.6683C21.8771 19.0107 21.3074 18.9373 18.4928 18.9463C17.0338 18.9511 15.711 18.9283 15.5532 18.8958C15.3955 18.8634 14.6133 18.9801 13.8151 19.1553ZM19.138 28.0588C19.2169 28.1058 19.515 28.1738 19.8006 28.21C20.7536 28.3309 21.6964 28.7861 22.6517 29.5869C24.2028 30.8871 24.7613 32.182 24.613 34.1351C24.5498 34.9684 24.4448 35.3257 24.0729 35.9741C23.819 36.4168 23.5566 36.7968 23.4897 36.8186C23.4229 36.8404 23.3681 36.9053 23.3681 36.9629C23.3681 37.266 21.0882 38.7367 20.6186 38.7367C20.4878 38.7367 20.3593 38.7896 20.3329 38.8542C20.3067 38.9189 19.7529 39.0339 19.1022 39.11C16.6027 39.4022 14.5624 38.8414 12.8655 37.3955C12.5825 37.1543 12.3939 36.9562 12.4464 36.9552C12.499 36.9542 12.472 36.9142 12.3866 36.8663C12.3013 36.8183 12.0221 36.4099 11.7664 35.959C11.3945 35.3026 11.2861 34.9353 11.2243 34.1199C11.0779 32.1899 11.6382 30.8947 13.1873 29.5827C14.1797 28.7421 14.9877 28.3671 16.2239 28.1731C16.6317 28.1091 17.0011 28.0272 17.0447 27.9911C17.1575 27.8977 18.9657 27.9562 19.138 28.0588Z" fill="#C31212"/>
</svg>
