<svg width="40" height="60" viewBox="0 0 162 232" fill="none" xmlns="http://www.w3.org/2000/svg">
<path fill-rule="evenodd" clip-rule="evenodd" d="M105.446 25.6621C101.547 24.9421 88.702 22.4574 76.9019 20.1408C60.2534 16.8729 55.5934 16.1067 56.0996 16.7215C56.4586 17.1575 65.2293 27.4048 75.5907 39.4931L94.4284 61.4722L122.381 66.7358C137.755 69.6308 151.006 72.1051 151.828 72.2348C153.277 72.4629 153.049 72.1581 144.263 62.0977C139.28 56.393 130.761 46.5954 125.331 40.3251C119.901 34.0547 114.8 28.4851 113.997 27.9478C112.974 27.2644 110.409 26.5785 105.446 25.6621ZM141.032 71.2363L139.979 71.0865L134.191 81.1235C128.69 90.6615 128.361 91.1493 127.572 90.9329C127.116 90.8076 126.193 90.9827 125.521 91.3223C123.922 92.1296 123.447 93.8112 124.369 95.3998L125.077 96.6206L121.139 100.592L117.202 104.564L120.97 106.742C123.043 107.94 124.793 108.826 124.859 108.711C124.925 108.596 125.587 106.24 126.33 103.474L127.682 98.4474L129.407 98.1404C130.544 97.9383 131.333 97.4849 131.722 96.8119C132.486 95.487 132.304 93.5341 131.365 92.9918C130.653 92.5801 130.833 92.2107 136.654 82.1164C139.969 76.3693 142.547 71.6043 142.382 71.5266C142.218 71.4493 141.61 71.319 141.032 71.2363ZM63.5693 44.7434C58.2627 53.9444 57.7064 55.0556 58.3564 55.1587C60.3368 55.4729 67.9599 58.3269 73.4739 60.8187C81.6889 64.5306 98.1228 74.0287 105.441 79.2946C110.354 82.8291 116.635 88.0108 117.897 89.5705C118.311 90.0825 118.994 89.0446 124.301 79.8436C127.706 73.9392 130.094 69.4588 129.897 69.345C129.708 69.2355 121.674 67.6698 112.044 65.8658C102.414 64.0618 94.2754 62.436 93.9585 62.2528C93.6415 62.0696 88.166 55.8272 81.7903 48.3806C75.4146 40.934 70.043 34.7517 69.8536 34.6422C69.6566 34.5284 66.9746 38.839 63.5693 44.7434Z" fill="#40515D"/>
<path fill-rule="evenodd" clip-rule="evenodd" d="M42.2271 69.8637C38.0612 70.9694 30.7128 73.6396 30.2276 74.224C30.1071 74.3688 28.7264 75.1608 27.1596 75.983C25.5927 76.8052 23.9898 77.7924 23.5976 78.1768C23.2053 78.5611 22.33 79.2701 21.6533 79.7528C18.5756 81.9465 17.7622 82.7003 13.9346 86.9044C9.66517 91.5938 5.66182 98.1935 3.36825 104.323C-1.29736 116.792 -1.10583 131.404 3.87973 143.372C4.74667 145.452 7.22784 150.447 7.69462 151.05C8.12721 151.609 19.7643 171.789 23.1282 177.814C23.7347 178.9 24.6924 180.525 25.2569 181.425C25.8214 182.325 26.283 183.168 26.283 183.298C26.283 183.429 26.7747 184.315 27.3756 185.268C27.9765 186.221 29.9738 189.623 31.8138 192.828C33.6541 196.033 35.5581 199.346 36.0455 200.19C36.5324 201.035 37.5278 202.812 38.2571 204.139C41.1152 209.341 47.9025 221.093 48.6853 222.196C48.8849 222.789 49.3284 223.512 49.3284 223.721C49.3284 223.929 50.0037 224.842 50.6042 225.726C51.2042 226.611 52.2749 228.384 52.9828 229.667C53.6911 230.95 54.5067 232 54.7955 232C55.2842 232 57.6523 228.307 59.4375 224.761C59.8626 223.916 61.2691 221.467 62.5634 219.318C63.8572 217.169 65.4605 214.405 66.1262 213.176C67.8106 210.064 69.2688 207.51 69.6576 206.991C69.8381 206.75 70.5771 205.466 71.3003 204.139C72.023 202.812 73.0245 201.035 73.5255 200.19C74.026 199.346 75.6095 196.582 77.0436 194.048C78.4782 191.514 80.9755 187.17 82.5941 184.395C84.2123 181.62 86.2381 178.066 87.0958 176.498C87.9536 174.929 88.9879 173.152 89.3951 172.549C89.8018 171.946 90.4347 170.86 90.8007 170.136C91.1671 169.412 93.8113 164.821 96.6773 159.934C104.607 146.411 105.847 143.836 107.553 137.338C109.194 131.089 109.723 126.317 109.424 120.477C109.143 115.001 109.034 114.221 107.966 110.027C106.704 105.067 103.631 97.925 100.982 93.7928C98.3016 89.6111 89.8426 80.4109 88.6781 80.4109C88.4576 80.4109 87.9509 80.0651 87.553 79.6431C86.4581 78.4821 85.6293 77.8516 83.8161 76.8004C82.908 76.2739 82.0664 75.7329 81.9459 75.5982C81.5168 75.1186 76.4213 72.7704 73.6184 71.7609C66.8696 69.3293 65.1283 69.0577 56.525 69.0911C52.0654 69.1086 48.0222 69.0244 47.5401 68.9041C47.058 68.7844 44.6671 69.2161 42.2271 69.8637ZM58.4973 102.789C58.7384 102.962 59.6496 103.214 60.5227 103.348C63.4356 103.795 66.3173 105.478 69.2372 108.439C73.9782 113.248 75.6854 118.036 75.2322 125.258C75.0389 128.34 74.7181 129.661 73.5811 132.059C72.8054 133.696 72.0033 135.101 71.7986 135.182C71.5944 135.262 71.4269 135.502 71.4269 135.716C71.4269 136.836 64.4581 142.275 63.0227 142.275C62.623 142.275 62.2303 142.471 62.1496 142.709C62.0694 142.949 60.3767 143.374 58.3878 143.655C50.7479 144.736 44.5115 142.662 39.3248 137.315C38.4596 136.423 37.8832 135.691 38.0436 135.687C38.2045 135.683 38.1221 135.535 37.8609 135.358C37.6001 135.181 36.7467 133.671 35.9653 132.003C34.8283 129.576 34.497 128.217 34.3081 125.202C33.8606 118.065 35.5734 113.276 40.3083 108.424C43.3417 105.315 45.8115 103.928 49.59 103.211C50.8365 102.975 51.9655 102.672 52.0987 102.538C52.4437 102.193 57.9705 102.409 58.4973 102.789Z" fill="#C31212"/>
</svg>
